<?xml version="1.0" encoding="UTF-8" standalone="no"?>
<!-- Created with Inkscape (http://www.inkscape.org/) -->

<svg
   width="20mm"
   height="19.039619mm"
   viewBox="0 0 20 19.039619"
   version="1.1"
   id="svg1"
   sodipodi:docname="herz.svg"
   inkscape:export-filename="herz.png"
   inkscape:export-xdpi="150"
   inkscape:export-ydpi="150"
   inkscape:version="1.3.2 (091e20ef0f, 2023-11-25, custom)"
   xmlns:inkscape="http://www.inkscape.org/namespaces/inkscape"
   xmlns:sodipodi="http://sodipodi.sourceforge.net/DTD/sodipodi-0.dtd"
   xmlns="http://www.w3.org/2000/svg"
   xmlns:svg="http://www.w3.org/2000/svg">
  <sodipodi:namedview
     id="namedview1"
     pagecolor="#ffffff"
     bordercolor="#000000"
     borderopacity="0.25"
     inkscape:showpageshadow="2"
     inkscape:pageopacity="0.0"
     inkscape:pagecheckerboard="0"
     inkscape:deskcolor="#d1d1d1"
     inkscape:document-units="mm"
     inkscape:zoom="5.9154217"
     inkscape:cx="-13.101348"
     inkscape:cy="32.795633"
     inkscape:current-layer="layer1" />
  <defs
     id="defs1">
    <clipPath
       clipPathUnits="userSpaceOnUse"
       id="clipPath13-6-2">
      <path
         d="M 0,0 H 2400.944 V 3387.401 H 0 Z"
         transform="translate(-1048.9229,-1584.5927)"
         id="path13-2-6" />
    </clipPath>
    <clipPath
       clipPathUnits="userSpaceOnUse"
       id="clipPath13-6-2-3">
      <path
         d="M 0,0 H 2400.944 V 3387.401 H 0 Z"
         transform="translate(-1048.9229,-1584.5927)"
         id="path13-2-6-1" />
    </clipPath>
  </defs>
  <g
     id="layer1">
    <path
       style="fill:#0994dc;fill-opacity:1;stroke-width:0.167237"
       d="M 14.199283,0.06455337 C 10.574334,0.59923362 9.7888782,4.5000449 9.7888782,4.5000449 c 0,0 -1.8600448,-3.51059964 -5.5098105,-2.9722589 C 1.5359528,1.9323957 -1.2703379,4.567598 0.6134156,9.3391701 2.4971691,14.110742 11.93899,19.008302 11.93899,19.008302 c 0,0 7.594279,-7.410386 8.021824,-12.5228748 0.425889,-5.1122448 -2.796717,-6.85818419 -5.761531,-6.42087383 z"
       id="path1-7" />
    <path
       style="fill:#0885c6;fill-opacity:1;stroke-width:0.167237"
       d="M 3.7791034,2.011946 C 6.6247956,1.5922062 8.4889352,4.4429195 9.1283515,5.6147656 9.2189877,5.7822768 9.4662362,5.750879 9.5153078,5.5678323 L 9.7884983,4.5318514 C 8.9244252,2.7423123 7.0402459,1.153953 4.2838952,1.5605149 3.1423094,1.728899 1.9918391,2.28402 1.1711341,3.2181889 1.9197372,2.5516061 2.8525989,2.1486055 3.7791034,2.011946 Z"
       id="path2-0" />
    <path
       style="fill:#0885c6;fill-opacity:1;stroke-width:0.167237"
       d="m 14.204111,0.09728229 c -0.875216,0.12909441 -1.578838,0.49321072 -2.144548,0.96715091 0.411889,-0.23318138 0.880353,-0.40370788 1.416402,-0.48277515 2.681899,-0.39558041 5.382457,1.28367145 4.992081,6.14386975 -0.334613,4.1724052 -5.0458,9.8693992 -6.429721,11.9820652 -0.08831,0.13474 -0.09641,0.332027 -0.09641,0.332027 0,0 7.594279,-7.410386 8.021824,-12.5228743 0.427788,-5.1108343 -3.016518,-6.82407311 -5.759632,-6.41946341 z"
       id="path3-9" />
    <path
       style="opacity:0.3;fill:#71cbf9;fill-opacity:1;stroke-width:0.167237"
       d="M 1.8597421,4.5974685 C 2.3659609,3.7316625 3.3800158,2.9278784 4.4285955,3.5271612 4.9953309,3.8509704 4.8941848,4.7009803 4.4899642,5.1122201 3.9023619,5.7127936 3.3712639,6.1004861 3.0837333,6.9475593 2.9119743,7.4563675 2.8427636,7.9956923 2.8461595,8.5344505 2.8471274,8.7473066 2.5817045,8.838861 2.4520394,8.6703448 1.5713141,7.5357822 1.1214216,5.8609601 1.8597421,4.5974685 Z"
       id="path4-3" />
    <path
       style="opacity:0.3;fill:#71cbf9;fill-opacity:1;stroke-width:0.167237"
       d="m 12.046559,4.7583319 c -0.291187,0.04295 -0.537827,-0.2080498 -0.471963,-0.4950015 0.123184,-0.5286907 0.306714,-1.049378 0.549343,-1.5246872 0.359616,-0.7021828 1.166932,-1.1999267 1.769768,-0.8949662 0.617292,0.3112806 0.660656,1.1095469 0.324674,1.5479118 -0.721818,0.9398685 -1.75324,1.3050023 -2.171822,1.3667431 z"
       id="path6-6" />
    <path
       id="path12-2-7"
       d="m 0,0 c -47.866,-6.635 -92.228,26.92 -98.855,74.786 -6.635,47.865 26.937,92.203 74.802,98.838 8.825,1.223 17.517,1.057 25.887,-0.281 C -25.391,80.983 -26.655,77.611 -26.168,73.05 -22.747,57.665 -15.121,63.457 74.868,75.975 70.068,37.595 40.099,5.553 0,0 M 25.251,166.055 C 51.047,153.884 70.439,129.418 74.753,99.161 L 2.528,88.956 25.251,166.055 m 74.116,-63.408 c -5.709,40.207 -32.208,72.381 -67.06,87.403 l 14.848,50.435 73.902,-134.764 -21.69,-3.074 M 68.886,252.805 260.002,278.94 144.671,112.092 68.886,252.805 M 255.457,121.99 c -4.842,34.935 11.8,67.928 39.727,85.817 40.521,-85.668 37.786,-84.329 49.163,-83.916 6.181,1.289 10.461,6.841 9.453,12.964 -1.157,7.263 3.404,-1.934 -36.207,81.156 4.115,1.19 8.312,2.214 12.683,2.817 47.882,6.636 92.22,-26.928 98.855,-74.785 6.635,-47.882 -26.92,-92.22 -74.802,-98.855 -47.883,-6.626 -92.237,26.92 -98.872,74.802 m -282.922,76.273 c -61.45,-8.519 -104.523,-65.44 -96.012,-126.89 8.51,-61.45 65.44,-104.523 126.89,-96.012 53.732,7.444 93.417,51.889 96.863,104.019 0.711,0.099 1.314,0.181 2.041,0.264 87.931,15.79 30.183,-20.847 170.443,175.144 4.189,-8.684 8.047,-16.74 11.658,-24.309 -37.455,-22.54 -59.962,-65.952 -53.6,-111.901 8.519,-61.466 65.457,-104.54 126.923,-96.021 61.466,8.511 104.54,65.432 96.021,126.898 -8.511,61.458 -65.432,104.532 -126.898,96.013 -6.966,-0.967 -13.642,-2.628 -20.071,-4.776 l -0.066,0.099 c -63.449,135.07 -48.345,127.766 -130.079,117.248 l 3.586,-22.359 c 59.202,8.287 51.361,10.13 70.877,-33.985 L 55.79,275.131 45.172,295.556 c 42.437,15.757 54.592,17.393 44.296,28.019 l -97.855,-13.551 2.091,-22.102 26.3,3.172 10.551,-19.946 c -8.403,-28.696 -15.55,-53.079 -21.664,-73.876 -11.709,2.231 -23.929,2.71 -36.356,0.991"
       style="display:inline;fill:#fcd413;fill-opacity:1;fill-rule:evenodd;stroke:none"
       transform="matrix(0.02080205,0,0,-0.02080205,6.9856033,12.597342)"
       clip-path="url(#clipPath13-6-2)" />
  </g>
</svg>
